HIERARCHY
ROOT Hips
{
	OFFSET 0.0000 0.0000 0.0000
	CHANNELS 6 Xposition Yposition Zposition Zrotation Xrotation Yrotation
	JOINT Ab
	{
		OFFSET -0.0000 8.1305 -0.0000
		CHANNELS 3 Zrotation Xrotation Yrotation
		JOINT Chest
		{
			OFFSET -0.0000 26.2902 -0.0000
			CHANNELS 3 Zrotation Xrotation Yrotation
			JOINT Neck
			{
				OFFSET -0.0000 26.2902 0.0000
				CHANNELS 3 Zrotation Xrotation Yrotation
				JOINT Head
				{
					OFFSET -0.0000 10.8167 0.0000
					CHANNELS 3 Zrotation Xrotation Yrotation
					End Site
					{
						OFFSET -0.0000 16.7167 0.0000
					}
				}
			}
			JOINT LeftCollar
			{
				OFFSET -0.0000 26.2902 0.0000
				CHANNELS 3 Zrotation Xrotation Yrotation
				JOINT LeftShoulder
				{
					OFFSET 19.6667 -0.0000 0.0000
					CHANNELS 3 Zrotation Xrotation Yrotation
					JOINT LeftElbow
					{
						OFFSET 27.2190 0.0000 0.0000
						CHANNELS 3 Zrotation Xrotation Yrotation
						JOINT LeftWrist
						{
							OFFSET 30.7431 0.0000 0.0000
							CHANNELS 3 Zrotation Xrotation Yrotation
							End Site
							{
								OFFSET 0.0000 -14.7500 0.0000
							}
						}
					}
				}
			}
			JOINT RightCollar
			{
				OFFSET -0.0000 26.2902 0.0000
				CHANNELS 3 Zrotation Xrotation Yrotation
				JOINT RightShoulder
				{
					OFFSET -19.6667 0.0000 0.0000
					CHANNELS 3 Zrotation Xrotation Yrotation
					JOINT RightElbow
					{
						OFFSET -27.2190 0.0000 0.0000
						CHANNELS 3 Zrotation Xrotation Yrotation
						JOINT RightWrist
						{
							OFFSET -30.7431 0.0000 0.0000
							CHANNELS 3 Zrotation Xrotation Yrotation
							End Site
							{
								OFFSET -0.0000 -14.7500 0.0000
							}
						}
					}
				}
			}
		}
	}
	JOINT LeftHip
	{
		OFFSET 11.8000 0.0000 0.0000
		CHANNELS 3 Zrotation Xrotation Yrotation
		JOINT LeftKnee
		{
			OFFSET -0.0000 -39.7832 0.0000
			CHANNELS 3 Zrotation Xrotation Yrotation
			JOINT LeftAnkle
			{
				OFFSET -0.0000 -41.7317 0.0000
				CHANNELS 3 Zrotation Xrotation Yrotation
				End Site
				{
					OFFSET -0.0000 -4.9167 16.7167
				}
			}
		}
	}
	JOINT RightHip
	{
		OFFSET -11.8000 0.0000 0.0000
		CHANNELS 3 Zrotation Xrotation Yrotation
		JOINT RightKnee
		{
			OFFSET -0.0000 -39.7832 0.0000
			CHANNELS 3 Zrotation Xrotation Yrotation
			JOINT RightAnkle
			{
				OFFSET -0.0000 -41.7317 0.0000
				CHANNELS 3 Zrotation Xrotation Yrotation
				End Site
				{
					OFFSET -0.0000 -4.9167 16.7167
				}
			}
		}
	}
}
MOTION
Frames: 10
Frame Time: 0.010000
-17.8075 97.0519 178.9181 358.8822 359.8213 179.7628 357.6677 348.7075 0.6980 2.9204 9.8280 0.6732 359.1793 356.8028 0.3306 355.2503 5.5691 0.5819 340.1239 357.5759 13.7680 317.7523 59.8297 339.9968 9.7671 357.1841 327.9750 84.9051 357.4066 347.1065 26.5734 356.0431 343.3308 46.3132 47.3163 3.8126 340.1212 354.6010 30.0037 271.2402 356.1607 9.2251 357.6097 4.4666 358.2915 357.6420 8.3163 359.9870 354.3885 350.5893 19.5331 358.9875 8.2991 10.3170 6.0155 4.7022 6.7107 350.7813 344.2580 318.3295 
-17.8380 97.0474 178.9066 358.8904 359.8126 179.7586 357.6764 348.6995 0.6976 2.9153 9.8450 0.6709 359.1588 356.7677 0.3276 355.2487 5.5948 0.5839 340.1111 357.5872 13.7499 317.6863 59.7746 340.0916 9.7097 357.2090 327.9330 85.0425 357.4004 347.1479 26.5785 356.0218 343.3215 46.2965 47.3334 3.8360 340.0761 354.6127 29.9798 271.2218 356.1288 9.1940 357.5984 4.4556 358.2869 357.6350 8.3394 359.9818 354.4119 350.5737 19.5381 358.9733 8.2971 10.3501 6.0189 4.7052 6.7198 350.7422 344.2802 318.2889 
-17.8701 97.0438 178.8989 358.8873 359.7925 179.7457 357.6772 348.6802 0.6924 2.9055 9.8652 0.6719 359.1120 356.7609 0.3218 355.2873 5.5751 0.5718 340.1070 357.5636 13.7560 317.6856 59.7731 340.0788 9.7350 357.1807 327.9491 84.9498 357.3966 347.0737 26.5984 356.0286 343.3289 46.2801 47.2702 3.8141 340.1398 354.6222 30.0190 271.1598 356.1406 9.2103 357.5722 4.4298 358.3072 357.6384 8.3646 359.9516 354.4471 350.5673 19.5653 358.9468 8.2707 10.3559 6.0243 4.7239 6.7360 350.8227 344.2270 318.2808 
-17.8998 97.0392 178.8904 358.8971 359.7872 179.7470 357.6957 348.6960 0.6780 2.8825 9.8471 0.6568 359.0197 356.7963 0.3281 355.4117 5.5141 0.5730 340.1089 357.5817 13.7608 317.6687 59.7483 340.1060 9.6689 357.1951 327.9285 84.9658 357.3876 347.0441 26.6446 356.0397 343.3375 46.2328 47.2527 3.7977 340.1544 354.6351 30.0405 271.1792 356.1871 9.1684 357.5639 4.4089 358.3285 357.6370 8.4072 359.9097 354.4420 350.5332 19.5811 358.9420 8.2663 10.3507 6.0164 4.7352 6.7465 350.8120 344.2246 318.2697 
-17.9324 97.0337 178.8775 358.9047 359.7819 179.7422 357.7013 348.6964 0.6716 2.8799 9.8475 0.6476 358.9406 356.8280 0.3351 355.5058 5.4604 0.5796 340.1039 357.5697 13.7673 317.6250 59.7509 340.1471 9.7095 357.1920 327.9254 85.0351 357.3693 347.0948 26.6566 356.0366 343.3568 46.2231 47.2594 3.7817 340.1500 354.6060 30.0377 271.1508 356.1856 9.1378 357.5508 4.4018 358.3219 357.6325 8.4262 359.8763 354.5037 350.5147 19.6180 358.9284 8.2649 10.3583 6.0173 4.7402 6.7044 350.8457 344.2042 318.3066 
-17.9627 97.0287 178.8629 358.9144 359.7809 179.7280 357.6994 348.6965 0.6748 2.8857 9.8608 0.6487 358.8905 356.8366 0.3318 355.5502 5.4258 0.5704 340.1026 357.5732 13.7851 317.6388 59.7522 340.1203 9.6878 357.1994 327.9333 85.0373 357.3639 347.0970 26.6643 356.0317 343.3617 46.2125 47.2578 3.7700 340.1654 354.6227 30.0388 271.1568 356.1592 9.1933 357.5433 4.3997 358.3253 357.6182 8.4544 359.8660 354.4981 350.4937 19.6460 358.9190 8.2637 10.3810 6.0150 4.7550 6.7006 350.8549 344.1868 318.3017 
-17.9932 97.0240 178.8465 358.9292 359.7781 179.7113 357.7062 348.6829 0.6737 2.8882 9.8941 0.6459 358.8349 356.8258 0.3177 355.6004 5.4012 0.5514 340.0872 357.5823 13.8138 317.7565 59.7503 339.9846 9.6340 357.2163 327.9680 85.0985 357.3468 347.1078 26.6785 356.0347 343.3710 46.2074 47.2254 3.7498 340.1875 354.6328 30.0597 271.1592 356.1755 9.1990 357.5408 4.3992 358.3270 357.6057 8.4748 359.8533 354.5086 350.4657 19.6574 358.9140 8.2600 10.3707 6.0101 4.7762 6.7178 350.8545 344.1632 318.3126 
-18.0272 97.0198 178.8321 358.9346 359.7715 179.7001 357.7076 348.6740 0.6698 2.8882 9.9153 0.6431 358.7765 356.8287 0.3090 355.6549 5.3586 0.5403 340.0859 357.5606 13.8359 317.8170 59.7930 339.8998 9.6755 357.2110 328.0113 85.1052 357.3081 347.1570 26.6932 356.0455 343.3712 46.1900 47.2188 3.7495 340.1846 354.6267 30.0668 271.1776 356.1853 9.1378 357.5226 4.3880 358.3119 357.6021 8.5008 359.8605 354.5694 350.4555 19.6776 358.8941 8.2560 10.4149 6.0123 4.7845 6.6922 350.8897 344.1350 318.3143 
-18.0616 97.0150 178.8161 358.9465 359.7693 179.6935 357.7067 348.6700 0.6673 2.8944 9.9360 0.6424 358.7375 356.8080 0.3022 355.6865 5.3514 0.5350 340.0785 357.5663 13.8447 317.8734 59.8200 339.8536 9.6408 357.2179 328.0178 85.0886 357.2924 347.1561 26.7019 356.0436 343.3802 46.2039 47.1790 3.7231 340.1756 354.6242 30.0724 271.2023 356.1632 9.1729 357.5153 4.3834 358.2973 357.5889 8.5299 359.8478 354.5973 350.4370 19.7076 358.8839 8.2513 10.4041 6.0120 4.8082 6.6970 350.9113 344.1135 318.3149 
-18.0971 97.0107 178.7960 358.9543 359.7744 179.6835 357.6984 348.6656 0.6676 2.9014 9.9631 0.6407 358.7115 356.7855 0.2976 355.7043 5.3520 0.5309 340.0737 357.5638 13.8394 317.8709 59.8284 339.8637 9.6654 357.2117 327.9792 85.2637 357.4297 347.4167 26.7036 356.0425 343.3903 46.2369 47.1687 3.6848 340.1702 354.6083 30.0758 271.2962 356.1216 9.0898 357.5024 4.3910 358.3004 357.5817 8.5549 359.8053 354.6013 350.4034 19.7453 358.8685 8.2607 10.4167 6.0102 4.8218 6.6856 350.9262 344.0965 318.3203 
